#!OML:ASF I:\Actors\actors\Patient Classification 1\Patient 1\Session 1\Subject1.ASF
:FULLY-SPECIFIED
:DEGREES
972
root 0.504532 17.6093 7.82392 9.36098 -1.85212 -7.07831
lowerback 9.38704 0.39867 5.85225
upperback -7.60364 1.64014 1.50078
thorax -13.5716 0.308286 -1.96868
lowerneck -8.95018 -13.2584 -11.8671
upperneck 12.3952 -18.0624 11.0117
head 7.35118 -8.54063 3.50272
rclavicle 8.44214e-015 1.63003e-014
rhumerus -42.489 34.2209 -109.641
rradius 18.5555
rwrist 8.18665
rhand 29.4073 -33.7812
rfingers 7.12502
rthumb 53.1733 -53.1632
lclavicle 8.44214e-015 1.63003e-014
lhumerus -39.4744 -27.8143 106.387
lradius 15.3912
lwrist -8.47277
lhand -1.71572 -8.55323
lfingers 7.12502
lthumb 23.946 19.9735
rfemur -3.8608 26.0573 23.059
rtibia 1.48673
rfoot -10.9988 -26.0643
rtoes 3.15679
lfemur 2.94672 -40.8263 -11.2736
ltibia -3.9267
lfoot -15.1485 47.0896
ltoes 3.96958
973
root 0.5047 17.6143 7.84003 9.2605 -1.72604 -7.03688
lowerback 9.29161 0.435348 5.94778
upperback -7.69405 1.69823 1.46771
thorax -13.6121 0.321998 -2.0687
lowerneck -8.98527 -13.1972 -11.9352
upperneck 12.7831 -17.9767 10.841
head 7.46228 -8.50662 3.46189
rclavicle -9.54166e-015 -3.47873e-014
rhumerus -43.6968 35.7624 -110.417
rradius 19.8077
rwrist 5.7665
rhand 28.5326 -34.6295
rfingers 7.12502
rthumb 52.383 -54.5049
lclavicle -9.54166e-015 -3.47873e-014
lhumerus -41.0766 -30.0868 107.514
lradius 17.134
lwrist -5.20764
lhand -1.26875 -8.17667
lfingers 7.12502
lthumb 24.3746 20.2931
rfemur -3.63496 26.0343 23.1101
rtibia 1.43774
rfoot -11.072 -26.1517
rtoes 3.34312
lfemur 3.08775 -40.7595 -11.4097
ltibia -3.92565
lfoot -15.084 46.9282
ltoes 3.80762
974
root 0.503725 17.6183 7.85808 9.16061 -1.60407 -7.02766
lowerback 9.16662 0.487151 6.07806
upperback -7.80191 1.78142 1.44059
thorax -13.6523 0.344211 -2.18598
lowerneck -8.87167 -13.1408 -12.0702
upperneck 13.1599 -17.9064 10.6934
head 7.555 -8.48825 3.44496
rclavicle 1.83876e-015 1.78906e-014
rhumerus -45.3826 37.5768 -111.529
rradius 21.4691
rwrist 3.2632
rhand 27.9222 -35.2477
rfingers 7.12502
rthumb 51.8296 -55.4541
lclavicle 1.83876e-015 1.78906e-014
lhumerus -42.5911 -32.2503 108.631
lradius 18.6276
lwrist -2.32044
lhand -0.553089 -7.89013
lfingers 7.12502
lthumb 25.0605 20.4857
rfemur -3.4177 25.9703 23.209
rtibia 1.42736
rfoot -11.1404 -26.1818
rtoes 3.42271
lfemur 3.23555 -40.6446 -11.5037
ltibia -3.93187
lfoot -15.0796 46.7112
ltoes 3.66897
975
root 0.502392 17.6214 7.87826 9.07456 -1.55171 -7.02333
lowerback 9.01749 0.555359 6.15609
upperback -7.90152 1.87822 1.43097
thorax -13.6671 0.379835 -2.25677
lowerneck -8.70434 -13.0522 -12.2075
upperneck 13.4917 -17.8067 10.6273
head 7.62898 -8.45372 3.4627
rclavicle 2.85753e-016 2.06736e-014
rhumerus -47.0285 39.0902 -112.397
rradius 23.3537
rwrist 1.3718
rhand 27.6818 -35.3944
rfingers 7.12502
rthumb 51.6112 -55.7282
lclavicle 2.85753e-016 2.06736e-014
lhumerus -44.4197 -34.6524 109.941
lradius 20.5089
lwrist 0.549046
lhand 0.323676 -7.52634
lfingers 7.12502
lthumb 25.9004 20.7295
rfemur -3.2219 25.8952 23.307
rtibia 1.43749
rfoot -11.1994 -26.1371
rtoes 3.28847
lfemur 3.47907 -40.6424 -11.6603
ltibia -3.98669
lfoot -15.1422 46.6954
ltoes 3.45448
976
root 0.502136 17.6257 7.89999 8.97889 -1.52761 -6.97898
lowerback 8.90008 0.619909 6.17933
upperback -8.00254 1.96428 1.42149
thorax -13.7051 0.414871 -2.29506
lowerneck -8.49823 -12.9473 -12.2537
upperneck 13.7531 -17.6883 10.5295
head 7.65944 -8.41149 3.46467
rclavicle 1.60643e-014 -5.1684e-015
rhumerus -48.6664 40.3542 -113.098
rradius 25.5127
rwrist -0.34139
rhand 27.1281 -35.9165
rfingers 7.12502
rthumb 51.1075 -56.5378
lclavicle 1.60643e-014 -5.1684e-015
lhumerus -46.0114 -36.3419 110.754
lradius 22.4466
lwrist 2.43966
lhand 1.03125 -7.32668
lfingers 7.12502
lthumb 26.5778 20.8284
rfemur -2.99937 25.8046 23.3545
rtibia 1.40454
rfoot -11.2395 -26.097
rtoes 3.08553
lfemur 3.80182 -40.7772 -11.9338
ltibia -4.05291
lfoot -15.2648 46.8187
ltoes 3.37014
977
root 0.502338 17.6303 7.91391 8.82775 -1.52299 -6.76802
lowerback 8.96792 0.697924 6.04585
upperback -8.12057 2.05509 1.36169
thorax -13.88 0.459257 -2.30687
lowerneck -8.17536 -12.8288 -12.382
upperneck 13.9448 -17.5734 10.583
head 7.66966 -8.3698 3.53384
rclavicle -4.58447e-015 2.46493e-014
rhumerus -50.3532 41.384 -113.665
rradius 27.9097
rwrist -2.13277
rhand 26.2902 -36.6562
rfingers 7.12502
rthumb 50.343 -57.697
lclavicle -4.58447e-015 2.46493e-014
lhumerus -47.1818 -37.279 110.969
lradius 24.1742
lwrist 3.62718
lhand 1.54533 -7.78283
lfingers 7.12502
lthumb 27.0697 20.2968
rfemur -2.80061 25.8097 23.19
rtibia 1.43575
rfoot -11.3414 -26.1434
rtoes 3.34975
lfemur 4.05959 -40.8781 -12.3748
ltibia -4.00894
lfoot -15.3438 46.8385
ltoes 3.37822
978
root 0.501024 17.6336 7.91441 8.56104 -1.67858 -6.29007
lowerback 9.36807 0.816392 5.54566
upperback -8.25163 2.16258 1.24755
thorax -14.2847 0.536835 -2.18689
lowerneck -7.7748 -12.679 -12.6548
upperneck 14.1557 -17.4525 10.8735
head 7.70786 -8.31826 3.70406
rclavicle 3.78933e-015 1.53064e-014
rhumerus -51.0235 40.8885 -112.76
rradius 29.9627
rwrist -2.12951
rhand 25.8168 -36.1192
rfingers 7.12502
rthumb 49.91 -57.389
lclavicle 3.78933e-015 1.53064e-014
lhumerus -48.299 -37.9267 111.001
lradius 25.8441
lwrist 4.72982
lhand 1.57475 -8.76458
lfingers 7.12502
lthumb 27.0978 19.3106
rfemur -2.62572 25.9937 22.6976
rtibia 1.57507
rfoot -11.4491 -26.2185
rtoes 3.65844
lfemur 4.31669 -40.8599 -13.133
ltibia -3.83341
lfoot -15.4641 46.8149
ltoes 3.53516
979
root 0.501225 17.6373 7.93683 8.45318 -1.5289 -6.29751
lowerback 9.26434 0.811908 5.62144
upperback -8.38497 2.1711 1.27293
thorax -14.3782 0.530234 -2.20061
lowerneck -7.39358 -12.5711 -12.7563
upperneck 14.3469 -17.3623 10.9111
head 7.70568 -8.29131 3.765
rclavicle 8.43592e-015 1.14301e-014
rhumerus -50.4031 38.3971 -110.026
rradius 31.7791
rwrist 0.406735
rhand 26.0561 -35.1518
rfingers 7.12502
rthumb 50.129 -56.3065
lclavicle 8.43592e-015 1.14301e-014
lhumerus -49.6389 -38.5 111.166
lradius 27.6592
lwrist 5.48241
lhand 0.422633 -9.07056
lfingers 7.12502
lthumb 25.9951 19.1714
rfemur -2.32412 25.9752 22.8422
rtibia 1.4793
rfoot -11.5212 -26.3554
rtoes 3.49281
lfemur 4.43871 -40.6578 -13.2024
ltibia -3.7809
lfoot -15.3072 46.5066
ltoes 3.29907
980
root 0.501798 17.64 7.96424 8.40361 -1.3625 -6.45023
lowerback 9.03785 0.807038 5.88108
upperback -8.49731 2.19961 1.31689
thorax -14.3644 0.519223 -2.29707
lowerneck -7.28137 -12.4667 -12.7556
upperneck 14.7985 -17.26 10.8018
head 7.81088 -8.2495 3.74601
rclavicle 1.42628e-014 2.14687e-014
rhumerus -53.7881 41.4662 -112.57
rradius 34.7412
rwrist -3.29004
rhand 24.518 -35.5714
rfingers 7.12502
rthumb 48.7182 -57.442
lclavicle 1.42628e-014 2.14687e-014
lhumerus -50.4637 -38.667 110.835
lradius 29.3666
lwrist 6.13589
lhand 0.114365 -8.33221
lfingers 7.12502
lthumb 25.6999 19.9528
rfemur -2.05166 25.9039 23.1546
rtibia 1.38584
rfoot -11.6187 -26.4413
rtoes 3.3656
lfemur 4.58294 -40.4846 -13.1008
ltibia -3.81915
lfoot -15.2245 46.2506
ltoes 3.06797
981
root 0.502945 17.6409 7.99831 8.39357 -1.15677 -6.70604
lowerback 8.68301 0.824946 6.29553
upperback -8.57225 2.26824 1.35516
thorax -14.2175 0.516079 -2.49053
lowerneck -7.20214 -12.4133 -12.7798
upperneck 15.1294 -17.2316 10.812
head 7.90544 -8.23543 3.7576
rclavicle -2.26615e-014 9.74045e-015
rhumerus -55.0843 41.949 -112.614
rradius 36.8948
rwrist -3.15141
rhand 23.8812 -35.5165
rfingers 7.12502
rthumb 48.1321 -57.6674
lclavicle -2.26615e-014 9.74045e-015
lhumerus -50.2864 -38.1199 109.484
lradius 30.8992
lwrist 7.45649
lhand 2.58154 -6.92402
lfingers 7.12502
lthumb 28.0606 20.9974
rfemur -1.78347 25.6729 23.5803
rtibia 1.27856
rfoot -11.6849 -26.3851
rtoes 3.2244
lfemur 4.78115 -40.3737 -12.9128
ltibia -3.94299
lfoot -15.0699 46.0437
ltoes 2.68187
982
root 0.504674 17.6394 8.0249 8.29231 -0.964084 -6.79022
lowerback 8.53553 0.831025 6.54388
upperback -8.64038 2.3063 1.35771
thorax -14.1982 0.508641 -2.62998
lowerneck -7.11193 -12.3001 -12.8261
upperneck 15.4367 -17.1191 10.8449
head 7.98412 -8.182 3.79339
rclavicle 8.93289e-015 2.40529e-014
rhumerus -54.9219 40.9032 -110.986
rradius 38.6211
rwrist -1.68333
rhand 24.0465 -35.7276
rfingers 7.12502
rthumb 48.2843 -57.8067
lclavicle 8.93289e-015 2.40529e-014
lhumerus -50.2741 -37.4604 108.301
lradius 32.0897
lwrist 7.41746
lhand 1.77917 -7.28427
lfingers 7.12502
lthumb 27.2934 20.7603
rfemur -1.46231 25.4766 23.816
rtibia 1.18076
rfoot -11.789 -26.3815
rtoes 3.38042
lfemur 5.05873 -40.3579 -12.9914
ltibia -4.03011
lfoot -14.8489 45.8911
ltoes 2.26373
983
root 0.504872 17.6369 8.04342 8.12397 -0.814767 -6.81985
lowerback 8.5609 0.804909 6.68741
upperback -8.69506 2.30372 1.39885
thorax -14.2802 0.491635 -2.66455
lowerneck -7.04523 -12.1025 -12.9045
upperneck 15.7138 -16.8817 10.8992
head 8.04603 -8.06927 3.8585
rclavicle 1.01256e-014 -5.38706e-014
rhumerus -54.4526 39.5948 -109.008
rradius 40.4243
rwrist -1.24492
rhand 23.9975 -36.7161
rfingers 7.12502
rthumb 48.2392 -58.8166
lclavicle 1.01256e-014 -5.38706e-014
lhumerus -49.8734 -36.2016 106.739
lradius 33.1388
lwrist 7.3529
lhand 1.35338 -7.39839
lfingers 7.12502
lthumb 26.886 20.7096
rfemur -1.13105 25.4508 24.0049
rtibia 1.14377
rfoot -11.9425 -26.5039
rtoes 3.71349
lfemur 5.39276 -40.3679 -13.1543
ltibia -4.10971
lfoot -14.5487 45.7981
ltoes 1.70143
984
root 0.503984 17.6348 8.06394 8.01068 -0.777162 -6.84455
lowerback 8.49163 0.817607 6.79627
upperback -8.73549 2.33812 1.43276
thorax -14.2814 0.498337 -2.6925
lowerneck -6.91488 -11.8998 -12.9507
upperneck 15.7769 -16.6494 11.0746
head 8.03422 -7.95363 3.96403
rclavicle 1.58407e-014 -4.52235e-014
rhumerus -54.0887 38.2483 -107.142
rradius 42.1874
rwrist -1.04916
rhand 23.2716 -37.5597
rfingers 7.12502
rthumb 47.5697 -59.9708
lclavicle 1.58407e-014 -4.52235e-014
lhumerus -49.1977 -34.5367 104.923
lradius 33.9313
lwrist 7.25404
lhand 2.20839 -7.34032
lfingers 7.12502
lthumb 27.7039 20.639
rfemur -0.901641 25.4864 24.1504
rtibia 1.16331
rfoot -12.0212 -26.581
rtoes 3.47826
lfemur 5.72724 -40.3919 -13.326
ltibia -4.21145
lfoot -14.429 45.8313
ltoes 1.33689
